name rise44.9368peak50.754fall52.0217.mot
datacolumns 19
datarows 18
range 4.68498400000000 4.71331600000000
endheader
time	ground_force1_vx	ground_force1_vy	ground_force1_vz	ground_force1_px	ground_force1_py	ground_force1_pz	ground_force2_vx	ground_force2_vy	ground_force2_vz	ground_force2_px	ground_force2_py	ground_force2_pz	ground_torque1_x	ground_torque1_y	ground_torque1_z	ground_torque2_x	ground_torque2_y	ground_torque2_z	
4.68498400000000	5.19626400000000	698.05859399999997	41.92232400000000	0.24681000000000	0.00000000000000	0.08598300000000	0.00000000000000	0.00000000000000	0.00000000000000	0.00000000000000	0.00000000000000	0.00000000000000	0.00000000000000	19.93234900000000	0.00000000000000	0.00000000000000	0.00000000000000	0.00000000000000	
4.68666100000000	4.65385600000000	698.60633099999995	42.00978200000000	0.24577600000000	0.00000000000000	0.08602300000000	0.00000000000000	0.00000000000000	0.00000000000000	0.00000000000000	0.00000000000000	0.00000000000000	0.00000000000000	20.02538800000000	0.00000000000000	0.00000000000000	0.00000000000000	0.00000000000000	
4.68832400000000	4.09779500000000	699.18013599999995	42.10197300000000	0.24476100000000	0.00000000000000	0.08606300000000	0.00000000000000	0.00000000000000	0.00000000000000	0.00000000000000	0.00000000000000	0.00000000000000	0.00000000000000	20.12400100000000	0.00000000000000	0.00000000000000	0.00000000000000	0.00000000000000	
4.68998700000000	3.52791000000000	699.77966400000003	42.19866500000000	0.24376400000000	0.00000000000000	0.08610300000000	0.00000000000000	0.00000000000000	0.00000000000000	0.00000000000000	0.00000000000000	0.00000000000000	0.00000000000000	20.22805700000000	0.00000000000000	0.00000000000000	0.00000000000000	0.00000000000000	
4.69168800000000	2.94406900000000	700.40466000000004	42.29963400000000	0.24278700000000	0.00000000000000	0.08614200000000	0.00000000000000	0.00000000000000	0.00000000000000	0.00000000000000	0.00000000000000	0.00000000000000	0.00000000000000	20.33741800000000	0.00000000000000	0.00000000000000	0.00000000000000	0.00000000000000	
4.69332300000000	2.34618400000000	701.05495699999994	42.40466100000000	0.24182700000000	0.00000000000000	0.08618000000000	0.00000000000000	0.00000000000000	0.00000000000000	0.00000000000000	0.00000000000000	0.00000000000000	0.00000000000000	20.45194100000000	0.00000000000000	0.00000000000000	0.00000000000000	0.00000000000000	
4.69498900000000	1.73421300000000	701.73047799999995	42.51353500000000	0.24088500000000	0.00000000000000	0.08621800000000	0.00000000000000	0.00000000000000	0.00000000000000	0.00000000000000	0.00000000000000	0.00000000000000	0.00000000000000	20.57147800000000	0.00000000000000	0.00000000000000	0.00000000000000	0.00000000000000	
4.69666100000000	1.10815500000000	702.43123200000002	42.62605300000000	0.23996000000000	0.00000000000000	0.08625500000000	0.00000000000000	0.00000000000000	0.00000000000000	0.00000000000000	0.00000000000000	0.00000000000000	0.00000000000000	20.69587600000000	0.00000000000000	0.00000000000000	0.00000000000000	0.00000000000000	
4.69831600000000	0.46805700000000	703.15731800000003	42.74201800000000	0.23905100000000	0.00000000000000	0.08629200000000	0.00000000000000	0.00000000000000	0.00000000000000	0.00000000000000	0.00000000000000	0.00000000000000	0.00000000000000	20.82497600000000	0.00000000000000	0.00000000000000	0.00000000000000	0.00000000000000	
4.69998500000000	-0.18599400000000	703.90891299999998	42.86124400000000	0.23815800000000	0.00000000000000	0.08632800000000	0.00000000000000	0.00000000000000	0.00000000000000	0.00000000000000	0.00000000000000	0.00000000000000	0.00000000000000	20.95861500000000	0.00000000000000	0.00000000000000	0.00000000000000	0.00000000000000	
4.70167900000000	-0.85386500000000	704.68627800000002	42.98355100000000	0.23728000000000	0.00000000000000	0.08636300000000	0.00000000000000	0.00000000000000	0.00000000000000	0.00000000000000	0.00000000000000	0.00000000000000	0.00000000000000	21.09662500000000	0.00000000000000	0.00000000000000	0.00000000000000	0.00000000000000	
4.70332000000000	-1.53537800000000	705.48974999999996	43.10877200000000	0.23641500000000	0.00000000000000	0.08639800000000	0.00000000000000	0.00000000000000	0.00000000000000	0.00000000000000	0.00000000000000	0.00000000000000	0.00000000000000	21.23883100000000	0.00000000000000	0.00000000000000	0.00000000000000	0.00000000000000	
4.70499000000000	-2.23031400000000	706.31973700000003	43.23674500000000	0.23556500000000	0.00000000000000	0.08643200000000	0.00000000000000	0.00000000000000	0.00000000000000	0.00000000000000	0.00000000000000	0.00000000000000	0.00000000000000	21.38505700000000	0.00000000000000	0.00000000000000	0.00000000000000	0.00000000000000	
4.70666100000000	-2.93841000000000	707.17671800000005	43.36732200000000	0.23472600000000	0.00000000000000	0.08646500000000	0.00000000000000	0.00000000000000	0.00000000000000	0.00000000000000	0.00000000000000	0.00000000000000	0.00000000000000	21.53512000000000	0.00000000000000	0.00000000000000	0.00000000000000	0.00000000000000	
4.70831900000000	-3.65936300000000	708.06122900000003	43.50036300000000	0.23389900000000	0.00000000000000	0.08649800000000	0.00000000000000	0.00000000000000	0.00000000000000	0.00000000000000	0.00000000000000	0.00000000000000	0.00000000000000	21.68883300000000	0.00000000000000	0.00000000000000	0.00000000000000	0.00000000000000	
4.70998800000000	-4.39282700000000	708.97386400000005	43.63573900000000	0.23308200000000	0.00000000000000	0.08652900000000	0.00000000000000	0.00000000000000	0.00000000000000	0.00000000000000	0.00000000000000	0.00000000000000	0.00000000000000	21.84600600000000	0.00000000000000	0.00000000000000	0.00000000000000	0.00000000000000	
4.71167700000000	-5.13841600000000	709.91526699999997	43.77333300000000	0.23227500000000	0.00000000000000	0.08656100000000	0.00000000000000	0.00000000000000	0.00000000000000	0.00000000000000	0.00000000000000	0.00000000000000	0.00000000000000	22.00644500000000	0.00000000000000	0.00000000000000	0.00000000000000	0.00000000000000	
4.71331600000000	-5.89570500000000	710.88612200000000	43.91303800000000	0.23147600000000	0.00000000000000	0.08659100000000	0.00000000000000	0.00000000000000	0.00000000000000	0.00000000000000	0.00000000000000	0.00000000000000	0.00000000000000	22.16995300000000	0.00000000000000	0.00000000000000	0.00000000000000	0.00000000000000	
